<?xml version="1.0" encoding="UTF-8" standalone="no"?>
<!-- Created with Inkscape (http://www.inkscape.org/) -->

<svg
  width="100mm"
  height="100mm"
  viewBox="0 0 100 100"
  version="1.1"
  id="svg1"
  xml:space="preserve"
  inkscape:version="1.4.2 (ebf0e94, 2025-05-08)"
  sodipodi:docname="Gen-epix-logo.svg"
  xmlns:inkscape="http://www.inkscape.org/namespaces/inkscape"
  xmlns:sodipodi="http://sodipodi.sourceforge.net/DTD/sodipodi-0.dtd"
  xmlns:xlink="http://www.w3.org/1999/xlink"
  xmlns="http://www.w3.org/2000/svg"
  xmlns:svg="http://www.w3.org/2000/svg"><sodipodi:namedview
     id="namedview1"
     pagecolor="#ffffff"
     bordercolor="#000000"
     borderopacity="0.25"
     inkscape:showpageshadow="2"
     inkscape:pageopacity="0.0"
     inkscape:pagecheckerboard="0"
     inkscape:deskcolor="#d1d1d1"
     inkscape:document-units="mm"
     inkscape:zoom="0.75811588"
     inkscape:cx="670.74179"
     inkscape:cy="339.65784"
     inkscape:window-width="1920"
     inkscape:window-height="1111"
     inkscape:window-x="-9"
     inkscape:window-y="-9"
     inkscape:window-maximized="1"
     inkscape:current-layer="layer1" /><defs
     id="defs1" /><g
     inkscape:label="Layer 1"
     inkscape:groupmode="layer"
     id="layer1"><g
       id="g1"
       transform="matrix(1.5258758,0,0,1.467273,-26.495275,-17.381416)"><ellipse
         style="fill:#778899;fill-opacity:1;stroke-width:0.176826"
         id="path1"
         cx="45.935482"
         cy="46.712658"
         rx="26.214453"
         ry="27.261457" /><g
         id="g4"
         transform="matrix(0.05495029,-0.05840141,0.05484207,0.05851665,17.828886,46.68343)"
         style="fill:#f9f9f9;stroke-width:0.999844;stroke-dasharray:none">
	<path
   class="st0"
   d="m 351.815,128.59 c -1.797,-18.117 -1.44,-34.865 2.855,-50.696 2.162,-7.924 5.319,-15.645 9.774,-23.276 4.473,-7.649 10.264,-15.209 17.77,-22.715 L 394.541,19.575 374.975,0 362.639,12.319 c -11.554,11.553 -20.056,23.72 -25.98,36.34 -8.929,18.962 -11.989,38.893 -11.767,58.842 0.187,19.967 3.504,40.041 7.321,60.204 2.49,13.136 4.642,25.775 5.843,37.844 1.805,18.117 1.441,34.874 -2.864,50.696 -2.152,7.916 -5.31,15.644 -9.774,23.284 -4.474,7.64 -10.264,15.191 -17.77,22.698 v 0.009 h 0.009 l -5.417,5.416 c -1.449,1.441 -2.882,2.82 -4.349,4.145 L 209.254,223.16 c -4.376,4.82 -8.068,9.748 -11.216,14.915 l 85.134,85.124 c -3.762,2.402 -7.534,4.482 -11.331,6.261 -4.207,1.984 -8.449,3.611 -12.772,4.91 l -71.365,-71.365 c -1.708,7.16 -2.624,14.835 -2.793,23.355 l 52.207,52.199 c -4.535,0.4 -9.16,0.542 -13.883,0.516 -10.575,-0.106 -21.603,-1.228 -33.112,-2.979 0.48,2.632 0.943,5.158 1.414,7.622 1.147,5.967 2.285,12.238 3.335,18.722 3.94,0.552 7.862,1.014 11.784,1.405 20.003,1.984 40.041,1.743 59.572,-3.558 9.766,-2.641 19.345,-6.564 28.639,-12.007 9.285,-5.434 18.303,-12.398 26.949,-21.043 l 5.407,-5.425 c 11.554,-11.536 20.047,-23.711 25.997,-36.34 8.921,-18.963 11.971,-38.876 11.767,-58.834 -0.205,-19.967 -3.514,-40.05 -7.32,-60.204 -2.508,-13.146 -4.652,-25.775 -5.852,-37.844 z"
   id="path1-5"
   style="fill:#f9f9f9;stroke-width:0.999844;stroke-dasharray:none" />
	<path
   class="st0"
   d="m 492.42,117.463 -12.319,12.318 c -1.458,1.45 -2.89,2.829 -4.349,4.145 L 387.106,45.28 c -4.367,4.83 -8.058,9.766 -11.207,14.915 l 85.124,85.134 c -3.762,2.41 -7.516,4.482 -11.322,6.261 -4.207,1.983 -8.458,3.61 -12.771,4.909 L 365.565,85.143 c -1.708,7.15 -2.624,14.826 -2.784,23.346 l 52.198,52.199 c -4.536,0.409 -9.16,0.543 -13.884,0.516 -10.574,-0.098 -21.603,-1.227 -33.112,-2.988 0.48,2.633 0.933,5.177 1.422,7.64 1.13,5.967 2.269,12.228 3.327,18.713 3.94,0.551 7.853,1.014 11.775,1.406 20.012,1.982 40.059,1.751 59.573,-3.558 9.765,-2.641 19.353,-6.555 28.647,-12.006 9.276,-5.425 18.295,-12.399 26.957,-21.053 l 12.31,-12.327 z"
   id="path2"
   style="fill:#f9f9f9;stroke-width:0.999844;stroke-dasharray:none" />
	<path
   class="st0"
   d="M 136.1,451.805 50.984,366.69 c 3.745,-2.428 7.516,-4.509 11.313,-6.279 4.216,-1.984 8.458,-3.62 12.772,-4.91 l 71.365,71.366 c 1.708,-7.151 2.624,-14.836 2.784,-23.356 L 97.038,351.33 c 4.536,-0.4 9.152,-0.569 13.874,-0.534 10.566,0.098 21.604,1.245 33.086,2.998 -0.462,-2.641 -0.924,-5.194 -1.396,-7.649 -1.138,-5.959 -2.268,-12.238 -3.326,-18.722 -3.932,-0.516 -7.844,-0.987 -11.767,-1.379 -20.021,-2.01 -40.076,-1.779 -59.599,3.531 -9.729,2.669 -19.344,6.582 -28.638,12.016 -9.276,5.425 -18.295,12.389 -26.949,21.052 l -12.318,12.318 19.576,19.585 12.318,-12.327 c 1.45,-1.45 2.9,-2.828 4.359,-4.145 l 88.646,88.638 c 4.357,-4.82 8.065,-9.756 11.196,-14.907 z"
   id="path3"
   style="fill:#f9f9f9;stroke-width:0.999844;stroke-dasharray:none" />
	<path
   class="st0"
   d="m 173.953,306.46 c -1.788,-18.116 -1.441,-34.873 2.855,-50.686 2.161,-7.942 5.31,-15.653 9.783,-23.293 4.464,-7.64 10.263,-15.208 17.77,-22.715 l 5.416,-5.408 -0.009,-0.017 c 1.441,-1.45 2.891,-2.82 4.358,-4.128 l 88.629,88.629 c 4.367,-4.821 8.076,-9.766 11.198,-14.906 l -85.116,-85.115 c 3.753,-2.428 7.533,-4.51 11.322,-6.28 4.216,-1.974 8.458,-3.62 12.772,-4.91 l 71.365,71.357 c 1.717,-7.151 2.624,-14.818 2.784,-23.338 l -52.181,-52.19 c 4.527,-0.4 9.152,-0.569 13.874,-0.524 10.558,0.098 21.604,1.245 33.086,2.98 -0.462,-2.633 -0.924,-5.177 -1.396,-7.64 -1.138,-5.968 -2.277,-12.23 -3.326,-18.713 -3.923,-0.534 -7.844,-1.004 -11.767,-1.396 -20.029,-1.993 -40.076,-1.761 -59.599,3.548 -9.73,2.659 -19.344,6.573 -28.638,12.007 -9.276,5.434 -18.295,12.389 -26.949,21.052 l 0.009,0.009 -5.416,5.416 c -11.544,11.544 -20.047,23.711 -25.98,36.341 -8.929,18.962 -11.989,38.884 -11.767,58.824 0.188,19.976 3.504,40.059 7.311,60.213 2.499,13.137 4.651,25.774 5.852,37.835 1.796,18.135 1.441,34.873 -2.864,50.704 -2.152,7.916 -5.31,15.644 -9.766,23.285 -4.474,7.64 -10.282,15.182 -17.779,22.698 L 117.466,492.426 137.034,512 149.37,499.682 c 11.544,-11.544 20.047,-23.72 25.988,-36.341 8.921,-18.962 11.98,-38.875 11.767,-58.833 -0.205,-19.976 -3.522,-40.041 -7.329,-60.195 -2.499,-13.146 -4.643,-25.775 -5.843,-37.853 z"
   id="path4"
   style="fill:#f9f9f9;stroke-width:0.999844;stroke-dasharray:none" />
</g><path
         id="path1-1"
         style="fill:#ffffff;fill-opacity:1;stroke-width:1.39488"
         class="stone_een"
         d="m 63.852697,34.984589 c -1.64988,0 -2.9862,1.16629 -2.9862,2.60624 0,0.53819 0.18664,1.03859 0.50766,1.45298 l -8.111982,7.9646 c -0.407615,-0.18243 -0.864546,-0.29574 -1.354291,-0.29574 -0.795819,0 -1.515471,0.2762 -2.051491,0.71926 l -7.05794,-3.85072 c 0.08959,-0.2476 0.150831,-0.50555 0.150831,-0.7779 0,-1.43995 -1.336334,-2.60624 -2.986206,-2.60624 -1.649879,0 -2.986198,1.16629 -2.986198,2.60624 0,0.5864 0.229907,1.12066 0.603186,1.5559 l -8.34189,9.10097 c -0.37327,-0.14595 -0.783919,-0.23192 -1.219906,-0.23192 -1.649876,0 -2.986206,1.1663 -2.986206,2.60625 0,1.43994 1.33633,2.60623 2.986206,2.60623 1.649876,0 2.986197,-1.16629 2.986197,-2.60623 0,-0.58641 -0.229916,-1.12077 -0.603186,-1.55601 l 8.341888,-9.10097 c 0.373274,0.14595 0.783923,0.23202 1.219909,0.23202 0.795818,0 1.515451,-0.2763 2.049983,-0.71936 l 7.059448,3.84939 c -0.0896,0.24759 -0.150818,0.50567 -0.150818,0.77933 0,1.43994 1.336321,2.60623 2.986193,2.60623 1.649879,0 2.986206,-1.16629 2.986206,-2.60623 0,-0.53819 -0.186634,-1.03859 -0.507649,-1.45298 l 8.111966,-7.96471 c 0.40761,0.18243 0.86455,0.29585 1.35429,0.29585 1.64989,0 2.98621,-1.16629 2.98621,-2.60624 0,-1.43995 -1.33632,-2.60624 -2.98621,-2.60624 z" /></g></g><style
     type="text/css"
     id="style1">
	.st0{fill:#000000;}
</style><style
     type="text/css"
     id="style1-7">
	.stone_een{fill:#0B1719;}
	.st0{fill:#0B1719;}
</style></svg>